<mxfile host="app.diagrams.net" modified="2022-03-10T03:37:33.629Z" agent="5.0 (Macintosh; Intel Mac OS X 10_15_7) AppleWebKit/537.36 (KHTML, like Gecko) Chrome/98.0.4758.109 Safari/537.36" etag="3JN8wFiBVaHpHzgwDzlu" version="17.0.0" type="github">
  <diagram id="dIn00swzhQr1vfs-r-vv" name="Page-1">
    <mxGraphModel dx="1188" dy="593" grid="1" gridSize="10" guides="1" tooltips="1" connect="1" arrows="1" fold="1" page="1" pageScale="1" pageWidth="827" pageHeight="1169" math="0" shadow="0">
      <root>
        <mxCell id="0" />
        <mxCell id="1" parent="0" />
        <mxCell id="nOUjfWvs8vEBZ7aOIasZ-1" value="master&lt;br&gt;&lt;br&gt;&lt;br&gt;&lt;br&gt;&lt;br&gt;&lt;br&gt;&lt;br&gt;" style="rounded=1;whiteSpace=wrap;html=1;sketch=1;dashed=1;" vertex="1" parent="1">
          <mxGeometry x="250" y="300" width="400" height="70" as="geometry" />
        </mxCell>
        <mxCell id="nOUjfWvs8vEBZ7aOIasZ-62" style="edgeStyle=orthogonalEdgeStyle;rounded=1;sketch=1;orthogonalLoop=1;jettySize=auto;html=1;entryX=0.5;entryY=1;entryDx=0;entryDy=0;fontSize=10;dashed=1;" edge="1" parent="1" source="nOUjfWvs8vEBZ7aOIasZ-16" target="nOUjfWvs8vEBZ7aOIasZ-45">
          <mxGeometry relative="1" as="geometry" />
        </mxCell>
        <mxCell id="nOUjfWvs8vEBZ7aOIasZ-16" value="mongoDB" style="shape=cylinder3;whiteSpace=wrap;html=1;boundedLbl=1;backgroundOutline=1;size=15;sketch=1;" vertex="1" parent="1">
          <mxGeometry x="560" y="400" width="60" height="70" as="geometry" />
        </mxCell>
        <mxCell id="nOUjfWvs8vEBZ7aOIasZ-53" style="edgeStyle=orthogonalEdgeStyle;rounded=1;sketch=1;orthogonalLoop=1;jettySize=auto;html=1;exitX=0.5;exitY=0;exitDx=0;exitDy=0;exitPerimeter=0;entryX=0.25;entryY=1;entryDx=0;entryDy=0;fontSize=10;dashed=1;" edge="1" parent="1" source="nOUjfWvs8vEBZ7aOIasZ-17" target="nOUjfWvs8vEBZ7aOIasZ-43">
          <mxGeometry relative="1" as="geometry" />
        </mxCell>
        <mxCell id="nOUjfWvs8vEBZ7aOIasZ-17" value="" style="sketch=0;html=1;dashed=0;whitespace=wrap;fillColor=#2875E2;strokeColor=#ffffff;points=[[0.005,0.63,0],[0.1,0.2,0],[0.9,0.2,0],[0.5,0,0],[0.995,0.63,0],[0.72,0.99,0],[0.5,1,0],[0.28,0.99,0]];shape=mxgraph.kubernetes.icon;prIcon=etcd" vertex="1" parent="1">
          <mxGeometry x="280" y="390" width="109" height="76" as="geometry" />
        </mxCell>
        <mxCell id="nOUjfWvs8vEBZ7aOIasZ-40" value="&lt;font style=&quot;font-size: 10px&quot;&gt;查询任务&lt;/font&gt;" style="text;html=1;resizable=0;autosize=1;align=center;verticalAlign=middle;points=[];fillColor=none;strokeColor=none;rounded=0;sketch=1;" vertex="1" parent="1">
          <mxGeometry x="340" y="350" width="60" height="20" as="geometry" />
        </mxCell>
        <mxCell id="nOUjfWvs8vEBZ7aOIasZ-41" value="服务感知" style="text;html=1;resizable=0;autosize=1;align=center;verticalAlign=middle;points=[];fillColor=none;strokeColor=none;rounded=0;sketch=1;" vertex="1" parent="1">
          <mxGeometry x="240" y="400" width="60" height="20" as="geometry" />
        </mxCell>
        <mxCell id="nOUjfWvs8vEBZ7aOIasZ-51" style="edgeStyle=orthogonalEdgeStyle;rounded=1;sketch=1;orthogonalLoop=1;jettySize=auto;html=1;fontSize=10;dashed=1;" edge="1" parent="1" source="nOUjfWvs8vEBZ7aOIasZ-42">
          <mxGeometry relative="1" as="geometry">
            <mxPoint x="300" y="400" as="targetPoint" />
          </mxGeometry>
        </mxCell>
        <mxCell id="nOUjfWvs8vEBZ7aOIasZ-42" value="服务注册" style="rounded=1;whiteSpace=wrap;html=1;sketch=1;fontSize=10;" vertex="1" parent="1">
          <mxGeometry x="290" y="310" width="70" height="30" as="geometry" />
        </mxCell>
        <mxCell id="nOUjfWvs8vEBZ7aOIasZ-52" style="edgeStyle=orthogonalEdgeStyle;rounded=1;sketch=1;orthogonalLoop=1;jettySize=auto;html=1;fontSize=10;entryX=0.995;entryY=0.63;entryDx=0;entryDy=0;entryPerimeter=0;dashed=1;" edge="1" parent="1" source="nOUjfWvs8vEBZ7aOIasZ-43" target="nOUjfWvs8vEBZ7aOIasZ-17">
          <mxGeometry relative="1" as="geometry">
            <mxPoint x="410" y="420" as="targetPoint" />
          </mxGeometry>
        </mxCell>
        <mxCell id="nOUjfWvs8vEBZ7aOIasZ-43" value="任务管理" style="rounded=1;whiteSpace=wrap;html=1;sketch=1;fontSize=10;" vertex="1" parent="1">
          <mxGeometry x="379" y="310" width="70" height="30" as="geometry" />
        </mxCell>
        <mxCell id="nOUjfWvs8vEBZ7aOIasZ-63" style="edgeStyle=orthogonalEdgeStyle;rounded=1;sketch=1;orthogonalLoop=1;jettySize=auto;html=1;entryX=0;entryY=0;entryDx=0;entryDy=25;entryPerimeter=0;fontSize=10;exitX=0.5;exitY=1;exitDx=0;exitDy=0;dashed=1;startArrow=classic;startFill=1;endArrow=none;endFill=0;" edge="1" parent="1" source="nOUjfWvs8vEBZ7aOIasZ-44" target="nOUjfWvs8vEBZ7aOIasZ-16">
          <mxGeometry relative="1" as="geometry" />
        </mxCell>
        <mxCell id="nOUjfWvs8vEBZ7aOIasZ-44" value="task_logs" style="rounded=1;whiteSpace=wrap;html=1;sketch=1;fontSize=10;" vertex="1" parent="1">
          <mxGeometry x="470" y="310" width="70" height="30" as="geometry" />
        </mxCell>
        <mxCell id="nOUjfWvs8vEBZ7aOIasZ-45" value="web_admin" style="rounded=1;whiteSpace=wrap;html=1;sketch=1;fontSize=10;" vertex="1" parent="1">
          <mxGeometry x="570" y="310" width="70" height="30" as="geometry" />
        </mxCell>
        <mxCell id="nOUjfWvs8vEBZ7aOIasZ-46" value="&lt;br&gt;&lt;br&gt;&lt;br&gt;&lt;br&gt;&lt;br&gt;&lt;br&gt;worker" style="rounded=1;whiteSpace=wrap;html=1;sketch=1;dashed=1;" vertex="1" parent="1">
          <mxGeometry x="250" y="488" width="410" height="72" as="geometry" />
        </mxCell>
        <mxCell id="nOUjfWvs8vEBZ7aOIasZ-67" style="edgeStyle=orthogonalEdgeStyle;rounded=1;sketch=1;orthogonalLoop=1;jettySize=auto;html=1;entryX=0.005;entryY=0.63;entryDx=0;entryDy=0;entryPerimeter=0;dashed=1;fontSize=10;" edge="1" parent="1" source="nOUjfWvs8vEBZ7aOIasZ-47" target="nOUjfWvs8vEBZ7aOIasZ-17">
          <mxGeometry relative="1" as="geometry" />
        </mxCell>
        <mxCell id="nOUjfWvs8vEBZ7aOIasZ-47" value="服务注册" style="rounded=1;whiteSpace=wrap;html=1;sketch=1;fontSize=10;" vertex="1" parent="1">
          <mxGeometry x="270" y="510" width="70" height="30" as="geometry" />
        </mxCell>
        <mxCell id="nOUjfWvs8vEBZ7aOIasZ-56" style="edgeStyle=orthogonalEdgeStyle;rounded=1;sketch=1;orthogonalLoop=1;jettySize=auto;html=1;entryX=0.72;entryY=0.99;entryDx=0;entryDy=0;entryPerimeter=0;fontSize=10;dashed=1;" edge="1" parent="1" source="nOUjfWvs8vEBZ7aOIasZ-48" target="nOUjfWvs8vEBZ7aOIasZ-17">
          <mxGeometry relative="1" as="geometry" />
        </mxCell>
        <mxCell id="nOUjfWvs8vEBZ7aOIasZ-48" value="分布式锁" style="rounded=1;whiteSpace=wrap;html=1;sketch=1;fontSize=10;" vertex="1" parent="1">
          <mxGeometry x="359" y="510" width="70" height="30" as="geometry" />
        </mxCell>
        <mxCell id="nOUjfWvs8vEBZ7aOIasZ-49" value="任务调度" style="rounded=1;whiteSpace=wrap;html=1;sketch=1;fontSize=10;" vertex="1" parent="1">
          <mxGeometry x="450" y="510" width="70" height="30" as="geometry" />
        </mxCell>
        <mxCell id="nOUjfWvs8vEBZ7aOIasZ-61" style="edgeStyle=orthogonalEdgeStyle;rounded=1;sketch=1;orthogonalLoop=1;jettySize=auto;html=1;entryX=0.5;entryY=1;entryDx=0;entryDy=0;entryPerimeter=0;fontSize=10;dashed=1;" edge="1" parent="1" source="nOUjfWvs8vEBZ7aOIasZ-50" target="nOUjfWvs8vEBZ7aOIasZ-16">
          <mxGeometry relative="1" as="geometry" />
        </mxCell>
        <mxCell id="nOUjfWvs8vEBZ7aOIasZ-50" value="调度日志" style="rounded=1;whiteSpace=wrap;html=1;sketch=1;fontSize=10;" vertex="1" parent="1">
          <mxGeometry x="550" y="510" width="70" height="30" as="geometry" />
        </mxCell>
        <mxCell id="nOUjfWvs8vEBZ7aOIasZ-55" value="保存任务" style="text;html=1;resizable=0;autosize=1;align=center;verticalAlign=middle;points=[];fillColor=none;strokeColor=none;rounded=0;sketch=1;" vertex="1" parent="1">
          <mxGeometry x="369" y="390" width="60" height="20" as="geometry" />
        </mxCell>
        <mxCell id="nOUjfWvs8vEBZ7aOIasZ-57" value="同步任务" style="text;html=1;resizable=0;autosize=1;align=center;verticalAlign=middle;points=[];fillColor=none;strokeColor=none;rounded=0;sketch=1;" vertex="1" parent="1">
          <mxGeometry x="429" y="466" width="60" height="20" as="geometry" />
        </mxCell>
        <mxCell id="nOUjfWvs8vEBZ7aOIasZ-58" style="edgeStyle=orthogonalEdgeStyle;rounded=1;sketch=1;orthogonalLoop=1;jettySize=auto;html=1;entryX=0.5;entryY=0;entryDx=0;entryDy=0;fontSize=10;dashed=1;" edge="1" parent="1" source="nOUjfWvs8vEBZ7aOIasZ-17" target="nOUjfWvs8vEBZ7aOIasZ-49">
          <mxGeometry relative="1" as="geometry" />
        </mxCell>
        <mxCell id="nOUjfWvs8vEBZ7aOIasZ-60" value="抢锁" style="text;html=1;resizable=0;autosize=1;align=center;verticalAlign=middle;points=[];fillColor=none;strokeColor=none;rounded=0;sketch=1;" vertex="1" parent="1">
          <mxGeometry x="359" y="468" width="40" height="20" as="geometry" />
        </mxCell>
        <mxCell id="nOUjfWvs8vEBZ7aOIasZ-64" value="查询日志" style="text;html=1;resizable=0;autosize=1;align=center;verticalAlign=middle;points=[];fillColor=none;strokeColor=none;rounded=0;sketch=1;" vertex="1" parent="1">
          <mxGeometry x="620" y="380" width="60" height="20" as="geometry" />
        </mxCell>
        <mxCell id="nOUjfWvs8vEBZ7aOIasZ-65" value="任务执行日志" style="text;html=1;resizable=0;autosize=1;align=center;verticalAlign=middle;points=[];fillColor=none;strokeColor=none;rounded=0;sketch=1;" vertex="1" parent="1">
          <mxGeometry x="605" y="470" width="90" height="20" as="geometry" />
        </mxCell>
        <mxCell id="nOUjfWvs8vEBZ7aOIasZ-66" value="任务调度日志" style="text;html=1;resizable=0;autosize=1;align=center;verticalAlign=middle;points=[];fillColor=none;strokeColor=none;rounded=0;sketch=1;" vertex="1" parent="1">
          <mxGeometry x="470" y="380" width="90" height="20" as="geometry" />
        </mxCell>
      </root>
    </mxGraphModel>
  </diagram>
</mxfile>
